<svg width="23" height="23" viewBox="0 0 23 23" fill="none" xmlns="http://www.w3.org/2000/svg">
<path d="M13.8555 11.1429C13.8555 10.9643 13.7662 10.7634 13.6323 10.6295L3.23047 0.227677C3.09654 0.09375 2.89565 0.00446224 2.71708 0.00446224C2.5385 0.00446224 2.33761 0.09375 2.20368 0.227677L1.08761 1.34375C0.953683 1.47768 0.864397 1.67857 0.864397 1.85714C0.864397 2.03571 0.953683 2.23661 1.08761 2.37054L9.85993 11.1429L1.08761 19.9152C0.953683 20.0491 0.864397 20.25 0.864397 20.4286C0.864397 20.6071 0.953683 20.808 1.08761 20.942L2.20368 22.058C2.33761 22.192 2.5385 22.2812 2.71708 22.2812C2.89565 22.2812 3.09654 22.192 3.23047 22.058L13.6323 11.6562C13.7662 11.5223 13.8555 11.3214 13.8555 11.1429ZM22.4269 11.1429C22.4269 10.9643 22.3376 10.7634 22.2037 10.6295L11.8019 0.227677C11.668 0.09375 11.4671 0.00446224 11.2885 0.00446224C11.1099 0.00446224 10.909 0.09375 10.7751 0.227677L9.65904 1.34375C9.52511 1.47768 9.43583 1.67857 9.43583 1.85714C9.43583 2.03571 9.52511 2.23661 9.65904 2.37054L18.4314 11.1429L9.65904 19.9152C9.52511 20.0491 9.43583 20.25 9.43583 20.4286C9.43583 20.6071 9.52511 20.808 9.65904 20.942L10.7751 22.058C10.909 22.192 11.1099 22.2812 11.2885 22.2812C11.4671 22.2812 11.668 22.192 11.8019 22.058L22.2037 11.6562C22.3376 11.5223 22.4269 11.3214 22.4269 11.1429Z" fill="white"/>
</svg>
