<svg width="23" height="23" viewBox="0 0 23 23" fill="none" xmlns="http://www.w3.org/2000/svg">
<path d="M13.5698 20.4286C13.5698 20.25 13.4805 20.0491 13.3465 19.9152L4.57422 11.1429L13.3465 2.37054C13.4805 2.23661 13.5698 2.03571 13.5698 1.85714C13.5698 1.67857 13.4805 1.47768 13.3465 1.34375L12.2305 0.227677C12.0965 0.09375 11.8956 0.00446224 11.7171 0.00446224C11.5385 0.00446224 11.3376 0.09375 11.2037 0.227677L0.801897 10.6295C0.667969 10.7634 0.578683 10.9643 0.578683 11.1429C0.578683 11.3214 0.667969 11.5223 0.801897 11.6562L11.2037 22.058C11.3376 22.192 11.5385 22.2812 11.7171 22.2812C11.8956 22.2812 12.0965 22.192 12.2305 22.058L13.3465 20.942C13.4805 20.808 13.5698 20.6071 13.5698 20.4286ZM22.1412 20.4286C22.1412 20.25 22.0519 20.0491 21.918 19.9152L13.1456 11.1429L21.918 2.37054C22.0519 2.23661 22.1412 2.03571 22.1412 1.85714C22.1412 1.67857 22.0519 1.47768 21.918 1.34375L20.8019 0.227677C20.668 0.09375 20.4671 0.00446224 20.2885 0.00446224C20.1099 0.00446224 19.909 0.09375 19.7751 0.227677L9.37333 10.6295C9.2394 10.7634 9.15011 10.9643 9.15011 11.1429C9.15011 11.3214 9.2394 11.5223 9.37333 11.6562L19.7751 22.058C19.909 22.192 20.1099 22.2812 20.2885 22.2812C20.4671 22.2812 20.668 22.192 20.8019 22.058L21.918 20.942C22.0519 20.808 22.1412 20.6071 22.1412 20.4286Z" fill="white"/>
</svg>
